<?xml version="1.0" standalone="no"?>
<!DOCTYPE svg PUBLIC "-//W3C//DTD SVG 20010904//EN"
 "http://www.w3.org/TR/2001/REC-SVG-20010904/DTD/svg10.dtd">
<svg version="1.0" xmlns="http://www.w3.org/2000/svg"
 width="483.000000pt" height="483.000000pt" viewBox="0 0 483.000000 483.000000"
 preserveAspectRatio="xMidYMid meet">
<metadata>
Created by potrace 1.14, written by Peter Selinger 2001-2017
</metadata>
<g transform="translate(0.000000,483.000000) scale(0.100000,-0.100000)"
fill="#000000" stroke="none">
<path d="M10 3063 c0 -5 637 -8 1415 -7 1187 1 1415 -1 1415 -12 0 -12 -230
-14 -1422 -14 -782 0 -1418 -3 -1415 -7 4 -3 643 -6 1419 -6 l1413 0 6 -41 c5
-35 6 -31 7 27 l2 67 -1420 0 c-781 0 -1420 -3 -1420 -7z"/>
<path d="M2891 2848 c-12 -51 -25 -103 -28 -115 -4 -19 -1 -23 16 -23 16 0 23
8 28 31 5 25 10 30 32 27 20 -2 27 -9 29 -30 3 -22 9 -28 27 -28 l23 0 -20 78
c-40 159 -37 152 -62 152 -20 0 -25 -9 -45 -92z m55 15 c-2 -3 -1 -16 5 -29 7
-19 5 -26 -7 -31 -8 -3 -17 -3 -20 0 -9 9 8 77 18 71 5 -3 7 -8 4 -11z"/>
<path d="M3076 2881 c-3 -5 -15 -7 -26 -4 -19 5 -20 0 -20 -82 0 -75 2 -86 17
-83 12 2 17 15 18 53 2 78 4 85 20 85 16 0 17 -6 19 -85 1 -39 5 -50 19 -53
14 -3 17 5 17 51 0 65 7 87 26 87 15 0 16 -7 16 -87 0 -46 2 -53 19 -53 17 0
19 8 19 74 0 53 -4 79 -15 90 -16 16 -54 13 -66 -5 -4 -7 -8 -7 -10 -1 -6 14
-46 24 -53 13z"/>
<path d="M3390 2867 c0 -10 4 -16 8 -13 4 2 14 1 21 -3 10 -6 9 -16 -4 -47 -9
-21 -21 -51 -25 -66 -9 -28 -8 -28 41 -28 37 0 49 4 49 15 0 9 -10 15 -26 15
-17 0 -24 4 -21 13 3 6 15 36 28 65 12 29 19 55 16 58 -3 3 -24 7 -46 8 -34 2
-41 -1 -41 -17z"/>
<path d="M3273 2874 c-21 -9 -3 -31 21 -27 15 3 25 -1 29 -11 7 -17 3 -21 -35
-30 -43 -10 -52 -77 -12 -93 9 -3 25 -1 35 6 12 7 19 7 19 1 0 -5 7 -10 15
-10 12 0 15 15 15 73 0 43 -5 78 -12 85 -12 12 -52 15 -75 6z m57 -101 c-1
-19 -19 -35 -34 -30 -21 8 -9 37 15 37 10 0 19 -3 19 -7z"/>
<path d="M3511 2867 c-28 -34 -26 -111 5 -141 22 -23 84 -21 84 2 0 13 -8 17
-32 17 -27 0 -34 4 -36 23 -3 20 1 22 37 22 36 0 41 3 41 23 0 54 -68 91 -99
54z m61 -34 c4 -13 -1 -18 -19 -18 -12 0 -23 5 -23 11 0 27 35 33 42 7z"/>
<path d="M2333 2841 c-120 -44 -200 -128 -253 -266 -29 -78 -32 -215 -6 -293
42 -125 132 -232 233 -280 51 -24 70 -27 158 -27 93 0 105 2 165 32 94 46 180
133 166 168 -10 26 -31 16 -64 -30 -73 -104 -218 -153 -349 -119 -274 71 -374
456 -175 676 66 73 137 107 238 113 113 6 237 -54 280 -137 16 -30 41 -37 50
-13 16 41 -89 144 -180 175 -73 26 -192 26 -263 1z"/>
<path d="M463 2813 c-8 -21 -23 -56 -33 -78 -54 -122 -320 -744 -320 -749 0
-3 11 -6 25 -6 19 0 28 8 40 38 8 20 37 88 63 150 l47 112 216 0 216 0 43
-102 c86 -206 82 -198 107 -198 13 0 23 3 23 6 0 7 -293 696 -336 791 -13 28
-24 57 -24 62 0 6 -11 11 -26 11 -20 0 -28 -8 -41 -37z m145 -278 l89 -210
-190 -3 c-104 -1 -192 0 -195 3 -5 4 92 242 161 395 25 55 30 62 38 45 5 -11
49 -114 97 -230z"/>
<path d="M1038 2848 c0 -2 -2 -198 -3 -435 l-1 -433 23 0 23 0 2 385 3 385
173 -294 c95 -162 179 -299 186 -305 9 -8 17 -7 28 2 12 9 200 322 333 554 10
18 21 30 24 28 3 -2 6 -172 5 -379 l0 -376 23 0 23 0 0 435 0 435 -22 0 c-19
0 -44 -37 -148 -213 -68 -116 -153 -261 -188 -320 l-64 -108 -187 318 c-144
243 -193 319 -210 321 -11 2 -22 2 -23 0z"/>
<path d="M3582 2572 c-7 -5 -15 -22 -18 -37 -3 -16 -11 -36 -17 -44 -9 -11 -9
-15 1 -18 8 -3 12 -27 12 -74 0 -61 2 -69 19 -69 16 0 18 8 17 66 -1 54 2 68
16 75 22 12 23 29 2 29 -10 0 -14 7 -12 23 2 12 9 21 15 20 6 -1 14 4 17 12 3
8 1 15 -3 15 -5 0 -15 2 -23 5 -7 3 -19 1 -26 -3z"/>
<path d="M4246 2555 c-3 -9 1 -18 10 -22 19 -7 39 11 30 26 -10 16 -33 13 -40
-4z"/>
<path d="M2880 2446 c0 -106 2 -116 18 -116 17 0 19 8 18 65 -1 36 2 65 5 65
3 0 14 -29 24 -65 24 -91 45 -89 71 8 l19 72 3 -72 c3 -64 5 -73 22 -73 18 0
19 8 17 113 -2 112 -2 112 -27 112 -22 0 -27 -8 -46 -75 -13 -41 -23 -77 -24
-80 -1 -3 -12 31 -24 75 -21 72 -25 80 -49 83 l-27 3 0 -115z"/>
<path d="M3902 2514 c-8 -16 -16 -22 -25 -17 -61 38 -119 -48 -87 -131 16 -43
90 -57 90 -16 0 13 -6 16 -25 13 -19 -4 -25 0 -30 20 -13 49 -2 80 29 88 16 5
33 6 38 3 4 -3 8 -32 8 -64 0 -65 16 -92 50 -83 23 6 27 33 5 33 -8 0 -16 6
-16 13 -5 53 0 87 14 102 17 17 14 40 -4 30 -8 -6 -13 8 -10 28 3 19 -27 4
-37 -19z"/>
<path d="M3250 2420 c0 -81 2 -91 17 -88 14 2 17 15 18 63 1 67 9 87 30 78 11
-4 15 -23 15 -75 0 -61 2 -69 17 -66 15 3 17 14 16 68 -2 91 -1 88 -23 100
-13 7 -26 7 -38 1 -11 -6 -24 -6 -35 0 -16 9 -17 2 -17 -81z"/>
<path d="M3423 2503 c-9 -3 -13 -28 -13 -78 0 -64 3 -76 22 -89 14 -10 27 -12
38 -6 9 5 25 7 36 4 18 -5 19 1 19 80 0 58 -4 87 -12 90 -18 7 -22 -3 -24 -73
-2 -43 -7 -65 -16 -68 -22 -9 -27 4 -29 73 -1 69 -3 74 -21 67z"/>
<path d="M4007 2503 c-4 -3 -7 -41 -7 -84 0 -72 2 -78 23 -85 12 -5 27 -6 32
-4 6 1 21 3 35 4 25 1 25 2 25 83 0 70 -3 83 -17 87 -16 4 -18 -4 -18 -54 0
-67 -7 -90 -26 -90 -16 0 -16 -1 -19 70 -2 30 -3 61 -4 68 -1 13 -14 16 -24 5z"/>
<path d="M4190 2491 c-6 -10 -10 -11 -10 -3 0 6 -7 12 -15 12 -12 0 -15 -16
-15 -85 0 -75 2 -85 18 -85 15 0 18 8 16 48 -2 56 10 92 31 92 8 0 15 8 15 18
0 23 -27 25 -40 3z"/>
<path d="M4256 2503 c-3 -4 -6 -44 -6 -90 0 -75 2 -84 17 -81 15 3 17 16 18
85 0 54 -4 84 -12 87 -6 3 -14 2 -17 -1z"/>
<path d="M4320 2420 c0 -79 2 -90 18 -90 14 0 17 10 18 65 0 69 5 81 29 72 11
-5 15 -22 15 -72 0 -56 2 -65 18 -65 17 0 18 8 16 77 -2 85 -17 109 -58 93
-13 -4 -29 -4 -39 1 -15 9 -17 2 -17 -81z"/>
<path d="M3123 2494 c-20 -9 -3 -32 19 -26 11 3 24 -1 29 -9 14 -22 11 -29
-15 -29 -33 0 -58 -27 -54 -58 4 -34 32 -51 58 -34 12 7 20 8 20 2 0 -15 30
-12 31 3 3 49 -4 134 -13 144 -10 13 -51 16 -75 7z m57 -101 c-1 -19 -19 -35
-34 -30 -21 8 -9 37 15 37 10 0 19 -3 19 -7z"/>
<path d="M3663 2492 c-17 -11 -2 -27 26 -27 15 0 25 -6 27 -17 1 -12 -5 -18
-19 -18 -32 -1 -57 -24 -57 -52 0 -35 17 -46 68 -45 40 2 42 3 43 32 2 62 -3
110 -13 123 -12 13 -56 16 -75 4z m57 -96 c0 -16 -14 -36 -25 -36 -14 0 -27
25 -18 34 7 7 43 8 43 2z"/>
<path d="M4485 2483 c-12 -11 -15 -25 -11 -47 11 -59 11 -91 -1 -104 -32 -34
-2 -82 51 -82 40 0 66 26 66 67 0 33 -14 43 -56 43 -35 0 -30 24 8 35 17 6 32
17 34 26 1 9 5 31 9 48 l7 31 -45 0 c-29 0 -52 -6 -62 -17z m55 -38 c0 -14 -6
-25 -13 -25 -20 0 -25 9 -20 31 8 28 33 24 33 -6z m17 -131 c7 -18 -4 -31 -32
-36 -15 -2 -21 3 -23 25 -3 23 0 27 23 27 14 0 28 -7 32 -16z"/>
<path d="M2908 2153 c-37 -41 -46 -135 -16 -182 16 -26 57 -41 86 -30 34 13
27 34 -10 34 -43 0 -63 38 -54 100 8 50 23 66 57 63 16 -2 24 2 24 12 0 23
-67 25 -87 3z"/>
<path d="M3038 2100 c-19 -15 -23 -28 -22 -73 0 -30 6 -62 13 -71 17 -21 75
-21 92 0 19 23 18 120 -2 139 -23 24 -56 26 -81 5z m62 -69 c0 -44 -13 -66
-34 -58 -22 9 -25 79 -4 105 17 20 38 -6 38 -47z"/>
<path d="M3221 2111 c-7 -5 -22 -6 -32 -4 -18 5 -19 -1 -19 -81 0 -76 2 -86
18 -86 15 0 18 8 16 57 -2 66 3 83 22 83 16 0 16 1 19 -65 4 -75 4 -75 20 -75
12 0 15 13 15 58 0 35 6 66 14 78 14 19 15 19 23 -3 5 -13 8 -47 7 -78 -2 -48
0 -55 17 -55 17 0 19 8 19 73 0 39 -4 78 -8 85 -12 19 -49 23 -62 7 -10 -12
-14 -12 -27 0 -17 17 -23 18 -42 6z"/>
<path d="M3407 2114 c-4 -4 -7 -63 -7 -131 0 -98 3 -123 14 -123 18 0 25 19
20 58 -3 30 8 43 20 23 10 -16 47 1 57 26 29 76 -4 163 -55 144 -14 -6 -27 -6
-33 0 -5 5 -12 6 -16 3z m77 -57 c3 -12 3 -31 1 -42 -2 -11 -4 -26 -4 -32 -1
-7 -10 -13 -21 -13 -11 0 -20 6 -21 13 0 6 -2 22 -5 34 -6 33 12 74 30 67 8
-3 17 -15 20 -27z"/>
<path d="M3690 2030 c0 -79 2 -91 16 -88 13 2 17 16 18 63 2 71 11 92 32 74 9
-8 14 -33 14 -75 0 -55 3 -64 18 -64 16 0 18 9 16 68 -1 37 -3 72 -3 79 -2 20
-39 35 -58 24 -11 -6 -24 -6 -35 0 -17 9 -18 3 -18 -81z"/>
<path d="M3837 2114 c-3 -3 5 -44 18 -91 25 -89 24 -109 -7 -131 -19 -14 -16
-32 6 -32 30 0 48 31 76 135 21 81 26 111 17 117 -17 10 -24 0 -39 -61 l-14
-55 -13 56 c-11 50 -30 76 -44 62z"/>
<path d="M3563 2104 c-21 -9 -3 -31 21 -27 29 6 45 -25 18 -33 -51 -17 -63
-28 -60 -57 4 -39 30 -57 58 -39 12 7 20 8 20 2 0 -5 7 -10 15 -10 11 0 15 12
16 48 2 68 -2 95 -13 110 -10 12 -51 15 -75 6z m50 -114 c-8 -29 -20 -33 -33
-11 -8 16 -7 22 7 30 23 12 32 6 26 -19z"/>
<path d="M3 1828 l3 -63 2407 -1 c1324 0 2407 3 2407 6 0 3 -1077 5 -2392 5
-1316 -1 -2399 1 -2406 3 -8 3 -9 8 -3 16 7 8 632 11 2404 11 1318 0 2394 2
2392 5 -2 4 -1082 6 -2399 6 -1590 -1 -2396 2 -2397 9 -1 6 -2 22 -2 38 -1 15
-4 27 -8 27 -5 0 -7 -28 -6 -62z"/>
</g>
</svg>
